<svg width="312" height="219" viewBox="0 0 312 219" fill="none" xmlns="http://www.w3.org/2000/svg">
<mask id="mask0_21027_773" style="mask-type:alpha" maskUnits="userSpaceOnUse" x="0" y="0" width="312" height="219">
<path d="M186.445 20.1691C250.819 53.1791 269.202 31.4841 298.155 75.4651C327.108 119.447 307.38 201.64 246.544 215.116C185.707 228.592 174.8 195.411 92.2363 209.805C9.67329 224.199 -32.2067 98.6061 29.5293 46.2351C91.2663 -6.1349 122.072 -12.8409 186.445 20.1691Z" fill="white"/>
</mask>
<g mask="url(#mask0_21027_773)">
<path d="M186.445 20.1691C250.819 53.1791 269.202 31.4841 298.155 75.4651C327.108 119.447 307.38 201.64 246.544 215.116C185.707 228.592 174.8 195.411 92.2363 209.805C9.67329 224.199 -32.2067 98.6061 29.5293 46.2351C91.2663 -6.1349 122.072 -12.8409 186.445 20.1691Z" fill="#F2EBF9"/>
<path d="M122.071 -44.9978C126.78 16.1592 148.692 53.1812 187.807 66.0672C226.922 78.9542 280.071 60.4432 347.253 10.5352" stroke="white" stroke-width="1.32"/>
<path d="M145.217 -44.9978C155.642 26.9012 132.228 64.0472 74.9773 66.4422C-10.8997 70.0342 51.1443 4.8172 80.4413 30.8152C109.738 56.8122 107.353 113.105 61.6413 151.687C31.1663 177.409 -3.55566 190.27 -42.5247 190.27M322.18 152.507C195.269 144.307 94.6013 189.499 20.1763 288.083" stroke="white" stroke-width="1.32"/>
<path d="M-10.8987 151.562C72.3483 173.877 126.017 219.384 150.107 288.083" stroke="white" stroke-width="1.32"/>
<path d="M322.18 72.6361C266.01 128.706 226.801 145.008 204.552 121.542C171.178 86.3441 234.925 58.6261 244.328 90.0841C253.731 121.542 203.461 146.508 136.532 157.612C91.9133 165.015 39.1153 197.399 -21.8617 254.765M198.113 288.083C189.858 239.075 200.654 212.787 230.5 209.22C260.347 205.653 293.533 218.797 330.058 248.651M239.674 15.5071C262.289 15.5071 280.622 -10.2129 280.622 -41.9419C280.622 -73.6699 262.289 -99.3899 239.674 -99.3899C217.06 -99.3899 198.727 -73.6699 198.727 -41.9419C198.727 -10.2139 217.06 15.5071 239.674 15.5071Z" stroke="white" stroke-width="1.32"/>
<path d="M322.18 109.069C269.01 160.906 246.193 223.752 253.731 297.607" stroke="white" stroke-width="1.32"/>
<path d="M-10.8987 82.0271C120.425 108.561 223.477 180.421 298.255 297.607" stroke="white" stroke-width="1.32"/>
<path d="M37.3413 -44.9978C-2.79868 -36.7838 -17.6387 -19.6558 -7.18068 6.3872C8.50632 45.4512 66.3153 119.322 -10.8987 132.134M-10.8987 219.823C20.3573 266.412 53.4783 278.06 88.4623 254.765C140.939 219.823 158.732 212.569 180.603 219.823C195.184 224.658 208.444 247.412 220.381 288.083" stroke="white" stroke-width="1.32"/>
<path d="M313.203 161.04H-0.516602V223.52H313.203V161.04Z" fill="#F2EBF9"/>
<path d="M-27.7966 160.703H355.003" stroke="black" stroke-width="1.294" stroke-linecap="round" stroke-linejoin="round"/>
</g>
<mask id="mask1_21027_773" style="mask-type:alpha" maskUnits="userSpaceOnUse" x="50" y="58" width="34" height="42">
<path d="M50.6113 66.0662L68.3323 58.1792L83.0703 91.2732L65.3503 99.1602L50.6113 66.0662Z" fill="white"/>
</mask>
<g mask="url(#mask1_21027_773)">
<path d="M50.6113 66.0662L68.3323 58.1782L83.0703 91.2722L65.3493 99.1602L50.6113 66.0662Z" fill="white" stroke="black" stroke-width="1.384" stroke-linecap="round" stroke-linejoin="round"/>
<path d="M75.7102 71.7172C86.7642 66.7962 92.0292 54.5072 87.4682 44.2672C82.9082 34.0272 70.2502 29.7142 59.1952 34.6352C48.1412 39.5552 42.8762 51.8452 47.4372 62.0852C51.9972 72.3252 64.6552 76.6372 75.7102 71.7172Z" fill="black"/>
</g>
<path d="M171.391 131.472L171.833 156.477L214.821 155.735L214.38 130.73L171.391 131.472Z" fill="white"/>
<path fill-rule="evenodd" clip-rule="evenodd" d="M198.844 142.297L211.541 142.568V143.992L208.278 143.991C207.366 143.991 206.463 144.17 205.62 144.519C204.777 144.868 204.011 145.379 203.366 146.024C202.721 146.669 202.209 147.434 201.86 148.277C201.511 149.12 201.331 150.023 201.331 150.935V150.952C201.336 152.801 202.075 154.572 203.384 155.877C204.693 157.182 206.466 157.915 208.314 157.915L213.123 157.916C219.625 157.917 224.896 152.649 224.894 146.149V142.172C224.892 133.475 217.838 126.424 209.138 126.423H209.137L163.971 126.414" fill="white"/>
<path d="M198.844 142.297L211.541 142.568V143.992L208.278 143.991C207.366 143.991 206.463 144.17 205.62 144.519C204.777 144.868 204.011 145.379 203.366 146.024C202.721 146.669 202.209 147.434 201.86 148.277C201.511 149.12 201.331 150.023 201.331 150.935V150.952C201.336 152.801 202.075 154.572 203.384 155.877C204.693 157.182 206.466 157.915 208.314 157.915L213.123 157.916C219.625 157.917 224.896 152.649 224.894 146.149V142.172C224.892 133.475 217.838 126.424 209.138 126.423H209.137L163.971 126.414" stroke="black" stroke-width="1.384" stroke-linecap="round" stroke-linejoin="round"/>
<path fill-rule="evenodd" clip-rule="evenodd" d="M198.844 142.297L211.541 142.568V143.992L208.278 143.991C207.366 143.991 206.463 144.17 205.62 144.519C204.777 144.868 204.011 145.379 203.366 146.024C202.721 146.669 202.209 147.434 201.86 148.277C201.511 149.12 201.331 150.023 201.331 150.935V150.952C201.336 152.801 202.075 154.572 203.384 155.877C204.693 157.182 206.466 157.915 208.314 157.915L213.123 157.916C219.625 157.917 224.896 152.649 224.894 146.149V142.172C224.892 133.475 217.838 126.424 209.138 126.423H209.137L163.971 126.414" fill="white"/>
<path d="M198.844 142.297L211.541 142.568V143.992L208.278 143.991C207.366 143.991 206.463 144.17 205.62 144.519C204.777 144.868 204.011 145.379 203.366 146.024C202.721 146.669 202.209 147.434 201.86 148.277C201.511 149.12 201.331 150.023 201.331 150.935V150.952C201.336 152.801 202.075 154.572 203.384 155.877C204.693 157.182 206.466 157.915 208.314 157.915L213.123 157.916C219.625 157.917 224.896 152.649 224.894 146.149V142.172C224.892 133.475 217.838 126.424 209.138 126.423H209.137L163.971 126.414" stroke="black" stroke-width="1.384" stroke-linecap="round" stroke-linejoin="round"/>
<path fill-rule="evenodd" clip-rule="evenodd" d="M166.103 162.864L201.345 162.87C203.157 162.871 204.898 162.16 206.191 160.89C207.484 159.62 208.226 157.893 208.258 156.081C208.288 154.31 207.614 152.6 206.383 151.327C205.153 150.053 203.467 149.321 201.696 149.29L201.579 149.289L185.104 149.286" fill="white"/>
<path d="M166.103 162.864L201.345 162.87C203.157 162.871 204.898 162.16 206.191 160.89C207.484 159.62 208.226 157.893 208.258 156.081C208.288 154.31 207.614 152.6 206.383 151.327C205.153 150.053 203.467 149.321 201.696 149.29L201.579 149.289L185.104 149.286" stroke="black" stroke-width="1.32" stroke-linecap="round" stroke-linejoin="round"/>
<path fill-rule="evenodd" clip-rule="evenodd" d="M66.0553 83.3172C70.987 80.9467 76.5396 80.1882 81.9264 81.1489C87.3132 82.1096 92.2611 84.741 96.0693 88.6702L127.236 120.815L175.629 119.98L176.417 164.604L103.293 165.866C96.5028 165.982 89.8342 164.055 84.152 160.335C78.4699 156.615 74.0364 151.274 71.4263 145.004L56.3513 108.81C52.2993 99.0802 56.5613 87.8822 66.0553 83.3172Z" fill="#EAEBED" stroke="black" stroke-width="1.32" stroke-linejoin="round"/>
<path d="M134.717 120.735L112.441 121.692L98.2944 100.926" stroke="black" stroke-width="1.32" stroke-linecap="round" stroke-linejoin="round"/>
<path d="M69.5552 82.0172C74.6385 80.8833 79.9498 81.3801 84.7346 83.437C89.5194 85.4939 93.5344 89.0063 96.2092 93.4752L97.9762 96.4252L101.95 97.0802C102.056 99.8033 102.748 102.472 103.979 104.903C105.21 107.334 106.951 109.471 109.083 111.168L121.755 121.255" stroke="black" stroke-width="1.32" stroke-linecap="round" stroke-linejoin="round"/>
<path fill-rule="evenodd" clip-rule="evenodd" d="M161.812 115.824L176.579 117.134L177.463 167.257L160.499 168.858L161.812 115.824Z" fill="#EAEBED" stroke="black" stroke-width="1.32" stroke-linejoin="round"/>
<path fill-rule="evenodd" clip-rule="evenodd" d="M177.938 126.547L179.381 162.528L177.387 162.562L176.753 126.567L177.938 126.547ZM44.3154 28.3862C53.4034 24.3412 64.0534 28.4322 68.1034 37.5242C68.2014 37.7442 68.2954 37.9682 68.3844 38.1922L70.3254 43.0702C74.0274 52.3702 69.7304 62.9322 60.5894 67.0012C51.5534 71.0232 40.9644 66.9552 36.9394 57.9152L34.8164 53.1502C30.6014 43.6842 34.8534 32.5972 44.3154 28.3862Z" fill="black"/>
<path fill-rule="evenodd" clip-rule="evenodd" d="M70.1002 39.5703L74.7021 49.9043C78.1911 57.7383 74.6712 66.9133 66.8412 70.3993C59.0112 73.8843 49.8361 70.3593 46.3471 62.5263L41.7451 52.1913C38.2561 44.3583 41.7751 35.1822 49.6051 31.6972C57.4361 28.2122 66.6112 31.7373 70.1002 39.5703Z" fill="white" stroke="black" stroke-width="1.412" stroke-linecap="round" stroke-linejoin="round"/>
<path fill-rule="evenodd" clip-rule="evenodd" d="M71.1631 45.2861L73.9551 46.7491L75.4681 48.2371L74.2201 52.1511L71.1801 48.7241L71.1631 45.2861Z" fill="white"/>
<path d="M71.4841 60.5872C70.2048 61.156 68.752 61.1934 67.4451 60.6912C66.1383 60.189 65.0843 59.1883 64.5151 57.9092" stroke="black" stroke-width="1.412" stroke-linecap="round" stroke-linejoin="round"/>
<path fill-rule="evenodd" clip-rule="evenodd" d="M42.3213 33.2922C37.4373 32.8722 35.0583 35.5232 35.1823 41.2422C35.2803 45.7702 37.1303 53.8072 46.4633 62.9222C46.8503 63.3012 46.2113 55.7722 46.3783 55.1372C47.6403 50.3172 47.9203 45.4142 47.2193 40.4262C46.4263 34.7792 44.7933 32.4022 42.3213 33.2922Z" fill="black"/>
<path fill-rule="evenodd" clip-rule="evenodd" d="M36.828 32.991C34.412 32.736 28.561 34.113 28.748 42.691C28.846 47.22 32.098 58.138 42.028 64.499C42.407 64.741 39.776 57.222 39.943 56.586C41.205 51.767 41.485 46.863 40.784 41.875C39.594 33.405 39.244 33.245 36.828 32.991Z" fill="black"/>
<path fill-rule="evenodd" clip-rule="evenodd" d="M46.1512 54.134L44.3912 54.614C43.8406 54.7644 43.3318 55.0391 42.904 55.417C42.4762 55.7949 42.1408 56.266 41.9238 56.7939C41.7067 57.3219 41.6137 57.8926 41.6519 58.4621C41.6902 59.0317 41.8586 59.5848 42.1442 60.079C42.8574 61.3141 43.9269 62.3051 45.2126 62.9223C46.4984 63.5395 47.9405 63.7541 49.3502 63.538L50.2772 63.396" fill="white"/>
<path d="M46.1512 54.134L44.3912 54.614C43.8406 54.7644 43.3318 55.0391 42.904 55.417C42.4762 55.7949 42.1408 56.266 41.9238 56.7939C41.7067 57.3219 41.6137 57.8926 41.6519 58.4621C41.6902 59.0317 41.8586 59.5848 42.1442 60.079C42.8574 61.3141 43.9269 62.3051 45.2126 62.9223C46.4984 63.5395 47.9405 63.7541 49.3502 63.538L50.2772 63.396M45.4592 57.78L46.7432 60.664M46.2662 59.593L44.4332 59.105" stroke="black" stroke-width="1.412" stroke-linecap="round" stroke-linejoin="round"/>
<path fill-rule="evenodd" clip-rule="evenodd" d="M72.6572 45.4961L77.5572 49.9221L74.8762 52.7921" fill="white"/>
<path d="M72.6572 45.4961L77.5572 49.9221L74.8762 52.7921" stroke="black" stroke-width="1.412" stroke-linecap="round" stroke-linejoin="round"/>
<path d="M66.3683 49.4022C67.9113 48.7152 68.8423 47.4392 68.4473 46.5522C68.0523 45.6652 66.4813 45.5032 64.9383 46.1902C63.3953 46.8772 62.4643 48.1532 62.8593 49.0402C63.2543 49.9262 64.8253 50.0892 66.3683 49.4022Z" stroke="black" stroke-width="0.941" stroke-linecap="round" stroke-linejoin="round"/>
<path d="M66.3683 49.4021C67.2943 48.9891 67.7243 47.9361 67.3293 47.0501C66.9353 46.1631 65.8643 45.7781 64.9383 46.1901C64.0123 46.6021 63.5823 47.6551 63.9773 48.5421C64.3713 49.4291 65.4423 49.8131 66.3683 49.4021Z" fill="black"/>
<path fill-rule="evenodd" clip-rule="evenodd" d="M42.5891 32.386C52.4411 24.896 60.9541 21.683 68.1291 22.746C78.8901 24.34 78.0091 42.311 57.3901 45.743C43.6441 48.031 38.7101 43.579 42.5891 32.386Z" fill="black"/>
<path fill-rule="evenodd" clip-rule="evenodd" d="M35.1423 38.1421C34.3333 33.3851 45.6933 18.2861 54.7053 18.2491C60.7133 18.2241 61.6693 23.8421 57.5733 35.1031C43.1583 40.2991 35.6823 41.3121 35.1433 38.1411L35.1423 38.1421ZM12.9633 38.9531L15.3533 37.9391C20.2853 35.8451 25.9813 38.1461 28.0753 43.0791L77.8143 160.257L54.1363 160.78L7.82429 51.6751C5.73029 46.7421 8.03129 41.0471 12.9643 38.9531H12.9633Z" fill="black"/>
<path d="M245.607 96V160.335M288.942 96V160.335M240.923 99.635H293.27" stroke="#436FFF" stroke-width="1.384" stroke-linecap="round" stroke-linejoin="round"/>
<path d="M253.387 99.6021V133.497" stroke="#436FFF" stroke-width="0.97" stroke-linecap="round" stroke-linejoin="round"/>
<path d="M253.387 141.645C253.939 141.645 254.486 141.536 254.996 141.325C255.506 141.113 255.97 140.804 256.36 140.413C256.751 140.023 257.06 139.559 257.272 139.049C257.483 138.539 257.592 137.992 257.592 137.44C257.592 136.887 257.483 136.341 257.271 135.83C257.06 135.32 256.75 134.857 256.36 134.466C255.969 134.076 255.506 133.766 254.995 133.555C254.485 133.344 253.938 133.235 253.386 133.235C252.271 133.235 251.201 133.678 250.413 134.467C249.624 135.256 249.182 136.325 249.182 137.441C249.182 138.556 249.625 139.625 250.414 140.414C251.202 141.202 252.272 141.645 253.387 141.645Z" fill="#436FFF"/>
<path d="M262.442 99.6021V133.497" stroke="#436FFF" stroke-width="0.97" stroke-linecap="round" stroke-linejoin="round"/>
<path d="M262.442 141.645C262.995 141.645 263.541 141.536 264.051 141.325C264.562 141.113 265.025 140.804 265.416 140.413C265.806 140.023 266.116 139.559 266.327 139.049C266.538 138.539 266.647 137.992 266.647 137.44C266.647 136.887 266.538 136.341 266.327 135.83C266.115 135.32 265.805 134.857 265.415 134.466C265.024 134.076 264.561 133.766 264.051 133.555C263.54 133.344 262.994 133.235 262.441 133.235C261.326 133.235 260.257 133.678 259.468 134.467C258.68 135.256 258.237 136.325 258.237 137.441C258.237 138.556 258.68 139.625 259.469 140.414C260.257 141.202 261.327 141.645 262.442 141.645Z" fill="#436FFF"/>
<path d="M271.497 99.6021V133.497" stroke="#436FFF" stroke-width="0.97" stroke-linecap="round" stroke-linejoin="round"/>
<path d="M271.497 141.645C272.049 141.645 272.596 141.536 273.106 141.325C273.616 141.113 274.08 140.804 274.47 140.413C274.861 140.023 275.17 139.559 275.382 139.049C275.593 138.539 275.702 137.992 275.702 137.44C275.701 136.887 275.593 136.341 275.381 135.83C275.17 135.32 274.86 134.857 274.47 134.466C274.079 134.076 273.615 133.766 273.105 133.555C272.595 133.344 272.048 133.235 271.496 133.235C270.381 133.235 269.311 133.678 268.523 134.467C267.734 135.256 267.291 136.325 267.292 137.441C267.292 138.556 267.735 139.625 268.523 140.414C269.312 141.202 270.382 141.645 271.497 141.645Z" fill="#436FFF"/>
<path d="M280.552 99.6021V133.497" stroke="#436FFF" stroke-width="0.97" stroke-linecap="round" stroke-linejoin="round"/>
<path d="M280.552 141.645C281.667 141.645 282.737 141.202 283.526 140.413C284.314 139.625 284.757 138.555 284.757 137.44C284.757 136.325 284.314 135.255 283.526 134.467C282.737 133.678 281.667 133.235 280.552 133.235C279.437 133.235 278.367 133.678 277.579 134.467C276.79 135.255 276.347 136.325 276.347 137.44C276.347 138.555 276.79 139.625 277.579 140.413C278.367 141.202 279.437 141.645 280.552 141.645Z" fill="#436FFF"/>
</svg>
